<svg width="49" height="49" viewBox="0 0 49 49" fill="none" xmlns="http://www.w3.org/2000/svg">
<path d="M24.5 3.0625C12.6615 3.0625 3.0625 12.6615 3.0625 24.5C3.0625 36.3385 12.6615 45.9375 24.5 45.9375C36.3385 45.9375 45.9375 36.3385 45.9375 24.5C45.9375 12.6615 36.3385 3.0625 24.5 3.0625ZM24.5 42.3008C14.6713 42.3008 6.69922 34.3287 6.69922 24.5C6.69922 14.6713 14.6713 6.69922 24.5 6.69922C34.3287 6.69922 42.3008 14.6713 42.3008 24.5C42.3008 34.3287 34.3287 42.3008 24.5 42.3008Z" fill="#FAFAFA"/>
<path d="M22.2031 16.0781C22.2031 16.6873 22.4451 17.2715 22.8759 17.7023C23.3066 18.133 23.8908 18.375 24.5 18.375C25.1092 18.375 25.6934 18.133 26.1241 17.7023C26.5549 17.2715 26.7969 16.6873 26.7969 16.0781C26.7969 15.469 26.5549 14.8847 26.1241 14.454C25.6934 14.0232 25.1092 13.7813 24.5 13.7812C23.8908 13.7813 23.3066 14.0232 22.8759 14.454C22.4451 14.8847 22.2031 15.469 22.2031 16.0781ZM25.6484 21.4375H23.3516C23.141 21.4375 22.9688 21.6098 22.9688 21.8203V34.8359C22.9688 35.0465 23.141 35.2188 23.3516 35.2188H25.6484C25.859 35.2188 26.0312 35.0465 26.0312 34.8359V21.8203C26.0312 21.6098 25.859 21.4375 25.6484 21.4375Z" fill="#FAFAFA"/>
</svg>
