<svg width="49" height="49" viewBox="0 0 49 49" fill="none" xmlns="http://www.w3.org/2000/svg">
<path d="M9.1875 45.9375H27.5625C28.3745 45.9367 29.153 45.6138 29.7271 45.0396C30.3013 44.4655 30.6242 43.687 30.625 42.875V38.2812H27.5625V42.875H9.1875V6.125H27.5625V10.7188H30.625V6.125C30.6242 5.31302 30.3013 4.53454 29.7271 3.96038C29.153 3.38623 28.3745 3.06331 27.5625 3.0625H9.1875C8.37552 3.06331 7.59704 3.38623 7.02288 3.96038C6.44873 4.53454 6.12581 5.31302 6.125 6.125V42.875C6.12581 43.687 6.44873 44.4655 7.02288 45.0396C7.59704 45.6138 8.37552 45.9367 9.1875 45.9375Z" fill="#000000"/>
<path d="M31.5223 31.5223L37.0134 26.0312H15.3125V22.9688H37.0134L31.5223 17.4777L33.6875 15.3125L42.875 24.5L33.6875 33.6875L31.5223 31.5223Z" fill="#000000"/>
</svg>
