<svg width="42" height="42" viewBox="0 0 42 42" fill="none" xmlns="http://www.w3.org/2000/svg">
<path d="M28.875 17.0625C28.875 16.7144 29.0133 16.3806 29.2594 16.1344C29.5056 15.8883 29.8394 15.75 30.1875 15.75H32.8125C33.1606 15.75 33.4944 15.8883 33.7406 16.1344C33.9867 16.3806 34.125 16.7144 34.125 17.0625V19.6875C34.125 20.0356 33.9867 20.3694 33.7406 20.6156C33.4944 20.8617 33.1606 21 32.8125 21H30.1875C29.8394 21 29.5056 20.8617 29.2594 20.6156C29.0133 20.3694 28.875 20.0356 28.875 19.6875V17.0625Z" fill="#0A0A0A"/>
<path d="M9.1875 0C9.5356 0 9.86944 0.138281 10.1156 0.384422C10.3617 0.630564 10.5 0.964403 10.5 1.3125V2.625H31.5V1.3125C31.5 0.964403 31.6383 0.630564 31.8844 0.384422C32.1306 0.138281 32.4644 0 32.8125 0C33.1606 0 33.4944 0.138281 33.7406 0.384422C33.9867 0.630564 34.125 0.964403 34.125 1.3125V2.625H36.75C38.1424 2.625 39.4777 3.17812 40.4623 4.16269C41.4469 5.14726 42 6.48261 42 7.875V36.75C42 38.1424 41.4469 39.4777 40.4623 40.4623C39.4777 41.4469 38.1424 42 36.75 42H5.25C3.85761 42 2.52226 41.4469 1.53769 40.4623C0.553124 39.4777 0 38.1424 0 36.75V7.875C0 6.48261 0.553124 5.14726 1.53769 4.16269C2.52226 3.17812 3.85761 2.625 5.25 2.625H7.875V1.3125C7.875 0.964403 8.01328 0.630564 8.25942 0.384422C8.50556 0.138281 8.8394 0 9.1875 0V0ZM2.625 10.5V36.75C2.625 37.4462 2.90156 38.1139 3.39384 38.6062C3.88613 39.0984 4.55381 39.375 5.25 39.375H36.75C37.4462 39.375 38.1139 39.0984 38.6062 38.6062C39.0984 38.1139 39.375 37.4462 39.375 36.75V10.5H2.625Z" fill="#0A0A0A"/>
</svg>
