<svg width="49" height="49" viewBox="0 0 49 49" fill="none" xmlns="http://www.w3.org/2000/svg">
<path d="M44.2497 37.8798C42.9372 36.7097 41.7881 35.3683 40.8333 33.8917C39.791 31.8535 39.1663 29.6277 38.9958 27.3448V20.6209C39.0048 17.0352 37.7041 13.5696 35.3382 10.8753C32.9722 8.18096 29.7037 6.44335 26.1469 5.98893V4.2331C26.1469 3.75118 25.9555 3.289 25.6147 2.94823C25.2739 2.60746 24.8118 2.41602 24.3298 2.41602C23.8479 2.41602 23.3857 2.60746 23.045 2.94823C22.7042 3.289 22.5128 3.75118 22.5128 4.2331V6.01616C18.9878 6.50333 15.7589 8.25145 13.424 10.9367C11.0891 13.622 9.80642 17.0624 9.81359 20.6209V27.3448C9.64312 29.6277 9.0184 31.8535 7.97609 33.8917C7.03812 35.3649 5.90747 36.7061 4.61415 37.8798C4.46896 38.0073 4.3526 38.1643 4.2728 38.3403C4.19301 38.5164 4.15161 38.7073 4.15137 38.9006V40.7517C4.15137 41.1127 4.29477 41.4589 4.55003 41.7142C4.80529 41.9694 5.15149 42.1128 5.51248 42.1128H43.3514C43.7124 42.1128 44.0586 41.9694 44.3138 41.7142C44.5691 41.4589 44.7125 41.1127 44.7125 40.7517V38.9006C44.7122 38.7073 44.6708 38.5164 44.591 38.3403C44.5113 38.1643 44.3949 38.0073 44.2497 37.8798ZM6.98248 39.3906C8.24887 38.1672 9.36388 36.7963 10.3036 35.3073C11.6165 32.8457 12.3826 30.1296 12.5494 27.3448V20.6209C12.4954 19.0257 12.763 17.436 13.3362 15.9464C13.9094 14.4568 14.7765 13.0977 15.8858 11.9502C16.9952 10.8027 18.3241 9.89011 19.7935 9.26686C21.2629 8.64362 22.8426 8.32243 24.4387 8.32243C26.0348 8.32243 27.6146 8.64362 29.084 9.26686C30.5533 9.89011 31.8823 10.8027 32.9916 11.9502C34.101 13.0977 34.9681 14.4568 35.5413 15.9464C36.1144 17.436 36.382 19.0257 36.328 20.6209V27.3448C36.4949 30.1296 37.2609 32.8457 38.5739 35.3073C39.5136 36.7963 40.6286 38.1672 41.895 39.3906H6.98248Z" fill="#FAFAFA"/>
<path d="M24.5001 46.6589C25.3575 46.6391 26.1803 46.3168 26.8229 45.7489C27.4656 45.1809 27.8867 44.404 28.0117 43.5555H20.8523C20.9809 44.4271 21.4217 45.2222 22.0927 45.7931C22.7637 46.3639 23.6192 46.6716 24.5001 46.6589Z" fill="#FAFAFA"/>
</svg>
