<svg width="49" height="49" viewBox="0 0 49 49" fill="none" xmlns="http://www.w3.org/2000/svg">
<path d="M39.8125 21.4375H36.75V15.3125C36.75 12.0636 35.4594 8.94776 33.1621 6.65044C30.8647 4.35312 27.7489 3.0625 24.5 3.0625C21.2511 3.0625 18.1353 4.35312 15.8379 6.65044C13.5406 8.94776 12.25 12.0636 12.25 15.3125V21.4375H9.1875L6.125 24.5V42.875L9.1875 45.9375H39.8125L42.875 42.875V24.5L39.8125 21.4375ZM15.3125 15.3125C15.3125 12.8758 16.2805 10.5389 18.0035 8.81596C19.7264 7.09297 22.0633 6.125 24.5 6.125C26.9367 6.125 29.2736 7.09297 30.9965 8.81596C32.7195 10.5389 33.6875 12.8758 33.6875 15.3125V21.4375H15.3125V15.3125ZM39.8125 42.875H9.1875V24.5H39.8125V42.875Z" fill="#000000"/>
</svg>
