<svg width="49" height="49" viewBox="0 0 49 49" fill="none" xmlns="http://www.w3.org/2000/svg">
<path d="M24.5 4.08337C22.481 4.08337 20.5073 4.68208 18.8286 5.80379C17.1498 6.92549 15.8414 8.51982 15.0687 10.3851C14.2961 12.2505 14.0939 14.303 14.4878 16.2833C14.8817 18.2635 15.854 20.0824 17.2816 21.5101C18.7093 22.9378 20.5282 23.91 22.5085 24.3039C24.4887 24.6978 26.5412 24.4956 28.4066 23.723C30.2719 22.9503 31.8662 21.6419 32.9879 19.9632C34.1096 18.2844 34.7083 16.3107 34.7083 14.2917C34.7083 11.5843 33.6328 8.98776 31.7184 7.07333C29.8039 5.15889 27.2074 4.08337 24.5 4.08337ZM24.5 20.4167C23.2886 20.4167 22.1044 20.0575 21.0971 19.3845C20.0899 18.7114 19.3048 17.7548 18.8412 16.6356C18.3777 15.5164 18.2564 14.2849 18.4927 13.0968C18.729 11.9086 19.3124 10.8173 20.169 9.96068C21.0256 9.10408 22.1169 8.52073 23.3051 8.2844C24.4932 8.04806 25.7247 8.16936 26.8439 8.63295C27.9631 9.09653 28.9197 9.88159 29.5928 10.8888C30.2658 11.8961 30.625 13.0803 30.625 14.2917C30.625 15.9162 29.9797 17.4741 28.831 18.6227C27.6824 19.7714 26.1245 20.4167 24.5 20.4167ZM42.875 42.875V40.8334C42.875 37.043 41.3693 33.4078 38.6891 30.7276C36.0089 28.0474 32.3737 26.5417 28.5833 26.5417H20.4167C16.6263 26.5417 12.9911 28.0474 10.3109 30.7276C7.63072 33.4078 6.125 37.043 6.125 40.8334V42.875H10.2083V40.8334C10.2083 38.126 11.2839 35.5294 13.1983 33.615C15.1127 31.7006 17.7092 30.625 20.4167 30.625H28.5833C31.2908 30.625 33.8873 31.7006 35.8017 33.615C37.7162 35.5294 38.7917 38.126 38.7917 40.8334V42.875H42.875Z" fill="#FAFAFA"/>
</svg>
